<?xml version="1.0" encoding="UTF-8" standalone="no"?>
<!DOCTYPE svg PUBLIC "-//W3C//DTD SVG 1.1//EN"
 "http://www.w3.org/Graphics/SVG/1.1/DTD/svg11.dtd">
<!-- Generated by graphviz version 2.43.0 (0)
 -->
<!-- Title: WindowsGuiInferenceFlow Pages: 1 -->
<svg width="773pt" height="1726pt"
 viewBox="0.00 0.00 773.00 1726.18" xmlns="http://www.w3.org/2000/svg" xmlns:xlink="http://www.w3.org/1999/xlink">
<g id="graph0" class="graph" transform="scale(1 1) rotate(0) translate(18 1708.18)">
<title>WindowsGuiInferenceFlow</title>
<polygon fill="#f7f4ec" stroke="transparent" points="-18,18 -18,-1708.18 755,-1708.18 755,18 -18,18"/>
<text text-anchor="middle" x="368.5" y="-1671.78" font-family="Helvetica,sans-Serif" font-size="18.00">Windows GUI Inference Flow for One Full Image</text>
<!-- start -->
<g id="node1" class="node">
<title>start</title>
<ellipse fill="#dff3e8" stroke="#5d8a6f" cx="477" cy="-1643.09" rx="38.37" ry="19.18"/>
<text text-anchor="middle" x="477" y="-1639.99" font-family="Helvetica,sans-Serif" font-size="12.00">Start</text>
</g>
<!-- open_image -->
<g id="node2" class="node">
<title>open_image</title>
<path fill="#e4f0f6" stroke="#7a93a3" d="M520,-1575C520,-1575 434,-1575 434,-1575 428,-1575 422,-1569 422,-1563 422,-1563 422,-1547 422,-1547 422,-1541 428,-1535 434,-1535 434,-1535 520,-1535 520,-1535 526,-1535 532,-1541 532,-1547 532,-1547 532,-1563 532,-1563 532,-1569 526,-1575 520,-1575"/>
<text text-anchor="middle" x="477" y="-1558.4" font-family="Helvetica,sans-Serif" font-size="12.00">User opens</text>
<text text-anchor="middle" x="477" y="-1545.4" font-family="Helvetica,sans-Serif" font-size="12.00">one full image</text>
</g>
<!-- start&#45;&gt;open_image -->
<g id="edge1" class="edge">
<title>start&#45;&gt;open_image</title>
<path fill="none" stroke="#4a6572" stroke-width="1.6" d="M477,-1623.98C477,-1623.98 477,-1583.3 477,-1583.3"/>
<polygon fill="#4a6572" stroke="#4a6572" stroke-width="1.6" points="479.8,-1583.3 477,-1575.3 474.2,-1583.3 479.8,-1583.3"/>
</g>
<!-- preview -->
<g id="node3" class="node">
<title>preview</title>
<path fill="#ffffff" stroke="#7a93a3" d="M539,-1486C539,-1486 415,-1486 415,-1486 409,-1486 403,-1480 403,-1474 403,-1474 403,-1458 403,-1458 403,-1452 409,-1446 415,-1446 415,-1446 539,-1446 539,-1446 545,-1446 551,-1452 551,-1458 551,-1458 551,-1474 551,-1474 551,-1480 545,-1486 539,-1486"/>
<text text-anchor="middle" x="477" y="-1469.4" font-family="Helvetica,sans-Serif" font-size="12.00">GUI shows a preview</text>
<text text-anchor="middle" x="477" y="-1456.4" font-family="Helvetica,sans-Serif" font-size="12.00">of the full image</text>
</g>
<!-- open_image&#45;&gt;preview -->
<g id="edge2" class="edge">
<title>open_image&#45;&gt;preview</title>
<path fill="none" stroke="#4a6572" stroke-width="1.6" d="M477,-1534.8C477,-1534.8 477,-1494.12 477,-1494.12"/>
<polygon fill="#4a6572" stroke="#4a6572" stroke-width="1.6" points="479.8,-1494.12 477,-1486.12 474.2,-1494.12 479.8,-1494.12"/>
</g>
<!-- note_preview -->
<g id="node4" class="node">
<title>note_preview</title>
<polygon fill="#fff6d8" stroke="#c7b26a" points="542,-1397 368,-1397 368,-1344 548,-1344 548,-1391 542,-1397"/>
<polyline fill="none" stroke="#c7b26a" points="542,-1397 542,-1391 "/>
<polyline fill="none" stroke="#c7b26a" points="548,-1391 542,-1391 "/>
<text text-anchor="middle" x="458" y="-1380.4" font-family="Helvetica,sans-Serif" font-size="12.00">No AI decision yet.</text>
<text text-anchor="middle" x="458" y="-1367.4" font-family="Helvetica,sans-Serif" font-size="12.00">Inference starts only after</text>
<text text-anchor="middle" x="458" y="-1354.4" font-family="Helvetica,sans-Serif" font-size="12.00">&quot;Evaluate&quot; is clicked.</text>
</g>
<!-- preview&#45;&gt;note_preview -->
<g id="edge3" class="edge">
<title>preview&#45;&gt;note_preview</title>
<path fill="none" stroke="#b08a28" stroke-width="1.6" d="M475.5,-1445.75C475.5,-1431.62 475.5,-1412.62 475.5,-1397.25"/>
</g>
<!-- click_evaluate -->
<g id="node5" class="node">
<title>click_evaluate</title>
<path fill="#dff3e8" stroke="#7a93a3" d="M656,-1390.5C656,-1390.5 592,-1390.5 592,-1390.5 586,-1390.5 580,-1384.5 580,-1378.5 580,-1378.5 580,-1362.5 580,-1362.5 580,-1356.5 586,-1350.5 592,-1350.5 592,-1350.5 656,-1350.5 656,-1350.5 662,-1350.5 668,-1356.5 668,-1362.5 668,-1362.5 668,-1378.5 668,-1378.5 668,-1384.5 662,-1390.5 656,-1390.5"/>
<text text-anchor="middle" x="624" y="-1373.9" font-family="Helvetica,sans-Serif" font-size="12.00">User clicks</text>
<text text-anchor="middle" x="624" y="-1360.9" font-family="Helvetica,sans-Serif" font-size="12.00">&quot;Evaluate&quot;</text>
</g>
<!-- preview&#45;&gt;click_evaluate -->
<g id="edge4" class="edge">
<title>preview&#45;&gt;click_evaluate</title>
<path fill="none" stroke="#4a6572" stroke-width="1.6" d="M551.36,-1466C587.82,-1466 624,-1466 624,-1466 624,-1466 624,-1398.75 624,-1398.75"/>
<polygon fill="#4a6572" stroke="#4a6572" stroke-width="1.6" points="626.8,-1398.75 624,-1390.75 621.2,-1398.75 626.8,-1398.75"/>
</g>
<!-- load_models -->
<g id="node6" class="node">
<title>load_models</title>
<path fill="#fff6d8" stroke="#7a93a3" d="M698,-1295C698,-1295 550,-1295 550,-1295 544,-1295 538,-1289 538,-1283 538,-1283 538,-1267 538,-1267 538,-1261 544,-1255 550,-1255 550,-1255 698,-1255 698,-1255 704,-1255 710,-1261 710,-1267 710,-1267 710,-1283 710,-1283 710,-1289 704,-1295 698,-1295"/>
<text text-anchor="middle" x="624" y="-1278.4" font-family="Helvetica,sans-Serif" font-size="12.00">App loads ONNX models</text>
<text text-anchor="middle" x="624" y="-1265.4" font-family="Helvetica,sans-Serif" font-size="12.00">and thresholds if needed</text>
</g>
<!-- click_evaluate&#45;&gt;load_models -->
<g id="edge5" class="edge">
<title>click_evaluate&#45;&gt;load_models</title>
<path fill="none" stroke="#4a6572" stroke-width="1.6" d="M624,-1350.25C624,-1350.25 624,-1303.22 624,-1303.22"/>
<polygon fill="#4a6572" stroke="#4a6572" stroke-width="1.6" points="626.8,-1303.22 624,-1295.22 621.2,-1303.22 626.8,-1303.22"/>
</g>
<!-- segment -->
<g id="node7" class="node">
<title>segment</title>
<path fill="#e4f0f6" stroke="#7a93a3" d="M693.5,-1206C693.5,-1206 554.5,-1206 554.5,-1206 548.5,-1206 542.5,-1200 542.5,-1194 542.5,-1194 542.5,-1178 542.5,-1178 542.5,-1172 548.5,-1166 554.5,-1166 554.5,-1166 693.5,-1166 693.5,-1166 699.5,-1166 705.5,-1172 705.5,-1178 705.5,-1178 705.5,-1194 705.5,-1194 705.5,-1200 699.5,-1206 693.5,-1206"/>
<text text-anchor="middle" x="624" y="-1189.4" font-family="Helvetica,sans-Serif" font-size="12.00">Segmentation finds</text>
<text text-anchor="middle" x="624" y="-1176.4" font-family="Helvetica,sans-Serif" font-size="12.00">single berry candidates</text>
</g>
<!-- load_models&#45;&gt;segment -->
<g id="edge6" class="edge">
<title>load_models&#45;&gt;segment</title>
<path fill="none" stroke="#4a6572" stroke-width="1.6" d="M624,-1254.8C624,-1254.8 624,-1214.12 624,-1214.12"/>
<polygon fill="#4a6572" stroke="#4a6572" stroke-width="1.6" points="626.8,-1214.12 624,-1206.12 621.2,-1214.12 626.8,-1214.12"/>
</g>
<!-- instances_q -->
<g id="node8" class="node">
<title>instances_q</title>
<polygon fill="#ffffff" stroke="#7a93a3" points="624,-1117 511,-1090 624,-1063 737,-1090 624,-1117"/>
<text text-anchor="middle" x="624" y="-1086.9" font-family="Helvetica,sans-Serif" font-size="12.00">Any instances?</text>
</g>
<!-- segment&#45;&gt;instances_q -->
<g id="edge7" class="edge">
<title>segment&#45;&gt;instances_q</title>
<path fill="none" stroke="#4a6572" stroke-width="1.6" d="M624,-1165.64C624,-1165.64 624,-1125.25 624,-1125.25"/>
<polygon fill="#4a6572" stroke="#4a6572" stroke-width="1.6" points="626.8,-1125.25 624,-1117.25 621.2,-1125.25 626.8,-1125.25"/>
</g>
<!-- loop_intro -->
<g id="node9" class="node">
<title>loop_intro</title>
<path fill="#eef7fb" stroke="#7a93a3" d="M584,-1003C584,-1003 430,-1003 430,-1003 424,-1003 418,-997 418,-991 418,-991 418,-975 418,-975 418,-969 424,-963 430,-963 430,-963 584,-963 584,-963 590,-963 596,-969 596,-975 596,-975 596,-991 596,-991 596,-997 590,-1003 584,-1003"/>
<text text-anchor="middle" x="507" y="-986.4" font-family="Helvetica,sans-Serif" font-size="12.00">For each detected berry:</text>
<text text-anchor="middle" x="507" y="-973.4" font-family="Helvetica,sans-Serif" font-size="12.00">create crop + berry mask</text>
</g>
<!-- instances_q&#45;&gt;loop_intro -->
<g id="edge8" class="edge">
<title>instances_q&#45;&gt;loop_intro</title>
<path fill="none" stroke="#4a6572" stroke-width="1.6" d="M553.5,-1079.74C553.5,-1079.74 553.5,-1011.2 553.5,-1011.2"/>
<polygon fill="#4a6572" stroke="#4a6572" stroke-width="1.6" points="556.3,-1011.2 553.5,-1003.2 550.7,-1011.2 556.3,-1011.2"/>
<text text-anchor="middle" x="613.5" y="-1030.2" font-family="Helvetica,sans-Serif" font-size="11.00">Yes</text>
</g>
<!-- final_output -->
<g id="node22" class="node">
<title>final_output</title>
<path fill="#e4f0f6" stroke="#7a93a3" d="M577.5,-40C577.5,-40 414.5,-40 414.5,-40 408.5,-40 402.5,-34 402.5,-28 402.5,-28 402.5,-12 402.5,-12 402.5,-6 408.5,0 414.5,0 414.5,0 577.5,0 577.5,0 583.5,0 589.5,-6 589.5,-12 589.5,-12 589.5,-28 589.5,-28 589.5,-34 583.5,-40 577.5,-40"/>
<text text-anchor="middle" x="496" y="-23.4" font-family="Helvetica,sans-Serif" font-size="12.00">GUI shows the final overlay</text>
<text text-anchor="middle" x="496" y="-10.4" font-family="Helvetica,sans-Serif" font-size="12.00">and saves *_bewertet.png</text>
</g>
<!-- instances_q&#45;&gt;final_output -->
<g id="edge9" class="edge">
<title>instances_q&#45;&gt;final_output</title>
<path fill="none" stroke="#4a6572" stroke-width="1.6" d="M690.25,-1078.71C690.25,-964.35 690.25,-20 690.25,-20 690.25,-20 597.71,-20 597.71,-20"/>
<polygon fill="#4a6572" stroke="#4a6572" stroke-width="1.6" points="597.71,-17.2 589.71,-20 597.71,-22.8 597.71,-17.2"/>
<text text-anchor="middle" x="701" y="-559.2" font-family="Helvetica,sans-Serif" font-size="11.00">No</text>
</g>
<!-- berry_q -->
<g id="node10" class="node">
<title>berry_q</title>
<polygon fill="#ffffff" stroke="#7a93a3" points="313,-914 227,-887 313,-860 399,-887 313,-914"/>
<text text-anchor="middle" x="313" y="-883.9" font-family="Helvetica,sans-Serif" font-size="12.00">A1: Berry?</text>
</g>
<!-- loop_intro&#45;&gt;berry_q -->
<g id="edge10" class="edge">
<title>loop_intro&#45;&gt;berry_q</title>
<path fill="none" stroke="#4a6572" stroke-width="1.6" d="M426,-962.64C426,-934.46 426,-887 426,-887 426,-887 407.22,-887 407.22,-887"/>
<polygon fill="#4a6572" stroke="#4a6572" stroke-width="1.6" points="407.22,-884.2 399.22,-887 407.22,-889.8 407.22,-884.2"/>
</g>
<!-- unknown -->
<g id="node11" class="node">
<title>unknown</title>
<path fill="#d9dee3" stroke="#6a747d" d="M184,-722C184,-722 12,-722 12,-722 6,-722 0,-716 0,-710 0,-710 0,-694 0,-694 0,-688 6,-682 12,-682 12,-682 184,-682 184,-682 190,-682 196,-688 196,-694 196,-694 196,-710 196,-710 196,-716 190,-722 184,-722"/>
<text text-anchor="middle" x="98" y="-705.4" font-family="Helvetica,sans-Serif" font-size="12.00">Label: Unknown</text>
<text text-anchor="middle" x="98" y="-692.4" font-family="Helvetica,sans-Serif" font-size="12.00">(not a berry / unclear object)</text>
</g>
<!-- berry_q&#45;&gt;unknown -->
<g id="edge11" class="edge">
<title>berry_q&#45;&gt;unknown</title>
<path fill="none" stroke="#4a6572" stroke-width="1.6" d="M226.79,-887C166.98,-887 98,-887 98,-887 98,-887 98,-730.15 98,-730.15"/>
<polygon fill="#4a6572" stroke="#4a6572" stroke-width="1.6" points="100.8,-730.15 98,-722.15 95.2,-730.15 100.8,-730.15"/>
<text text-anchor="middle" x="122" y="-827.2" font-family="Helvetica,sans-Serif" font-size="11.00">No</text>
</g>
<!-- reject_q -->
<g id="node12" class="node">
<title>reject_q</title>
<polygon fill="#ffffff" stroke="#7a93a3" points="313,-800 223,-773 313,-746 403,-773 313,-800"/>
<text text-anchor="middle" x="313" y="-769.9" font-family="Helvetica,sans-Serif" font-size="12.00">A2: Never?</text>
</g>
<!-- berry_q&#45;&gt;reject_q -->
<g id="edge12" class="edge">
<title>berry_q&#45;&gt;reject_q</title>
<path fill="none" stroke="#4a6572" stroke-width="1.6" d="M313,-859.98C313,-859.98 313,-808.22 313,-808.22"/>
<polygon fill="#4a6572" stroke="#4a6572" stroke-width="1.6" points="315.8,-808.22 313,-800.22 310.2,-808.22 315.8,-808.22"/>
<text text-anchor="middle" x="322.5" y="-827.2" font-family="Helvetica,sans-Serif" font-size="11.00">Yes</text>
</g>
<!-- combine -->
<g id="node21" class="node">
<title>combine</title>
<path fill="#ffffff" stroke="#7a93a3" d="M371.5,-129C371.5,-129 226.5,-129 226.5,-129 220.5,-129 214.5,-123 214.5,-117 214.5,-117 214.5,-101 214.5,-101 214.5,-95 220.5,-89 226.5,-89 226.5,-89 371.5,-89 371.5,-89 377.5,-89 383.5,-95 383.5,-101 383.5,-101 383.5,-117 383.5,-117 383.5,-123 377.5,-129 371.5,-129"/>
<text text-anchor="middle" x="299" y="-112.4" font-family="Helvetica,sans-Serif" font-size="12.00">Combine all berry labels</text>
<text text-anchor="middle" x="299" y="-99.4" font-family="Helvetica,sans-Serif" font-size="12.00">on the full image</text>
</g>
<!-- unknown&#45;&gt;combine -->
<g id="edge21" class="edge">
<title>unknown&#45;&gt;combine</title>
<path fill="none" stroke="#4a6572" stroke-width="1.6" d="M60,-681.69C60,-576.88 60,-102 60,-102 60,-102 206.4,-102 206.4,-102"/>
<polygon fill="#4a6572" stroke="#4a6572" stroke-width="1.6" points="206.4,-104.8 214.4,-102 206.4,-99.2 206.4,-104.8"/>
</g>
<!-- never -->
<g id="node13" class="node">
<title>never</title>
<path fill="#2b2f33" stroke="#2b2f33" d="M208,-580C208,-580 132,-580 132,-580 126,-580 120,-574 120,-568 120,-568 120,-556 120,-556 120,-550 126,-544 132,-544 132,-544 208,-544 208,-544 214,-544 220,-550 220,-556 220,-556 220,-568 220,-568 220,-574 214,-580 208,-580"/>
<text text-anchor="middle" x="170" y="-558.9" font-family="Helvetica,sans-Serif" font-size="12.00" fill="#ffffff">Label: Never</text>
</g>
<!-- reject_q&#45;&gt;never -->
<g id="edge13" class="edge">
<title>reject_q&#45;&gt;never</title>
<path fill="none" stroke="#4a6572" stroke-width="1.6" d="M222.6,-773C213.77,-773 208,-773 208,-773 208,-773 208,-588.36 208,-588.36"/>
<polygon fill="#4a6572" stroke="#4a6572" stroke-width="1.6" points="210.8,-588.36 208,-580.36 205.2,-588.36 210.8,-588.36"/>
<text text-anchor="middle" x="242.5" y="-699.2" font-family="Helvetica,sans-Serif" font-size="11.00">Yes</text>
</g>
<!-- red_q -->
<g id="node14" class="node">
<title>red_q</title>
<polygon fill="#ffffff" stroke="#7a93a3" points="358,-658 282,-631 358,-604 434,-631 358,-658"/>
<text text-anchor="middle" x="358" y="-627.9" font-family="Helvetica,sans-Serif" font-size="12.00">A3: Red?</text>
</g>
<!-- reject_q&#45;&gt;red_q -->
<g id="edge14" class="edge">
<title>reject_q&#45;&gt;red_q</title>
<path fill="none" stroke="#4a6572" stroke-width="1.6" d="M342.5,-754.73C342.5,-754.73 342.5,-660.93 342.5,-660.93"/>
<polygon fill="#4a6572" stroke="#4a6572" stroke-width="1.6" points="345.3,-660.93 342.5,-652.93 339.7,-660.93 345.3,-660.93"/>
<text text-anchor="middle" x="336" y="-699.2" font-family="Helvetica,sans-Serif" font-size="11.00">No</text>
</g>
<!-- never&#45;&gt;combine -->
<g id="edge22" class="edge">
<title>never&#45;&gt;combine</title>
<path fill="none" stroke="#4a6572" stroke-width="1.6" d="M154.75,-543.92C154.75,-460.3 154.75,-115 154.75,-115 154.75,-115 206.25,-115 206.25,-115"/>
<polygon fill="#4a6572" stroke="#4a6572" stroke-width="1.6" points="206.25,-117.8 214.25,-115 206.25,-112.2 206.25,-117.8"/>
</g>
<!-- red -->
<g id="node15" class="node">
<title>red</title>
<path fill="#fce1e0" stroke="#c75a58" d="M264.5,-442C264.5,-442 201.5,-442 201.5,-442 195.5,-442 189.5,-436 189.5,-430 189.5,-430 189.5,-418 189.5,-418 189.5,-412 195.5,-406 201.5,-406 201.5,-406 264.5,-406 264.5,-406 270.5,-406 276.5,-412 276.5,-418 276.5,-418 276.5,-430 276.5,-430 276.5,-436 270.5,-442 264.5,-442"/>
<text text-anchor="middle" x="233" y="-420.9" font-family="Helvetica,sans-Serif" font-size="12.00">Label: Red</text>
</g>
<!-- red_q&#45;&gt;red -->
<g id="edge15" class="edge">
<title>red_q&#45;&gt;red</title>
<path fill="none" stroke="#4a6572" stroke-width="1.6" d="M294,-626.68C294,-596.95 294,-424 294,-424 294,-424 284.68,-424 284.68,-424"/>
<polygon fill="#4a6572" stroke="#4a6572" stroke-width="1.6" points="284.68,-421.2 276.68,-424 284.68,-426.8 284.68,-421.2"/>
<text text-anchor="middle" x="266.5" y="-559.2" font-family="Helvetica,sans-Serif" font-size="11.00">Yes</text>
</g>
<!-- green_q -->
<g id="node16" class="node">
<title>green_q</title>
<polygon fill="#ffffff" stroke="#7a93a3" points="396,-520 306,-493 396,-466 486,-493 396,-520"/>
<text text-anchor="middle" x="396" y="-489.9" font-family="Helvetica,sans-Serif" font-size="12.00">A4: Green?</text>
</g>
<!-- red_q&#45;&gt;green_q -->
<g id="edge16" class="edge">
<title>red_q&#45;&gt;green_q</title>
<path fill="none" stroke="#4a6572" stroke-width="1.6" d="M370,-608.21C370,-608.21 370,-520.26 370,-520.26"/>
<polygon fill="#4a6572" stroke="#4a6572" stroke-width="1.6" points="372.8,-520.26 370,-512.26 367.2,-520.26 372.8,-520.26"/>
<text text-anchor="middle" x="385" y="-559.2" font-family="Helvetica,sans-Serif" font-size="11.00">No</text>
</g>
<!-- red&#45;&gt;combine -->
<g id="edge23" class="edge">
<title>red&#45;&gt;combine</title>
<path fill="none" stroke="#4a6572" stroke-width="1.6" d="M237,-405.7C237,-405.7 237,-137.37 237,-137.37"/>
<polygon fill="#4a6572" stroke="#4a6572" stroke-width="1.6" points="239.8,-137.37 237,-129.37 234.2,-137.37 239.8,-137.37"/>
</g>
<!-- yellow_direct -->
<g id="node17" class="node">
<title>yellow_direct</title>
<path fill="#fff2b9" stroke="#c7a522" d="M348.5,-278C348.5,-278 271.5,-278 271.5,-278 265.5,-278 259.5,-272 259.5,-266 259.5,-266 259.5,-254 259.5,-254 259.5,-248 265.5,-242 271.5,-242 271.5,-242 348.5,-242 348.5,-242 354.5,-242 360.5,-248 360.5,-254 360.5,-254 360.5,-266 360.5,-266 360.5,-272 354.5,-278 348.5,-278"/>
<text text-anchor="middle" x="310" y="-256.9" font-family="Helvetica,sans-Serif" font-size="12.00">Label: Yellow</text>
</g>
<!-- green_q&#45;&gt;yellow_direct -->
<g id="edge17" class="edge">
<title>green_q&#45;&gt;yellow_direct</title>
<path fill="none" stroke="#4a6572" stroke-width="1.6" d="M333.25,-484.71C333.25,-484.71 333.25,-286.2 333.25,-286.2"/>
<polygon fill="#4a6572" stroke="#4a6572" stroke-width="1.6" points="336.05,-286.2 333.25,-278.2 330.45,-286.2 336.05,-286.2"/>
<text text-anchor="middle" x="322" y="-421.2" font-family="Helvetica,sans-Serif" font-size="11.00">No</text>
</g>
<!-- classical_q -->
<g id="node18" class="node">
<title>classical_q</title>
<polygon fill="#ffffff" stroke="#7a93a3" points="496,-382 363,-342 496,-302 629,-342 496,-382"/>
<text text-anchor="middle" x="496" y="-345.4" font-family="Helvetica,sans-Serif" font-size="12.00">Classical override:</text>
<text text-anchor="middle" x="496" y="-332.4" font-family="Helvetica,sans-Serif" font-size="12.00">size + shape OK?</text>
</g>
<!-- green_q&#45;&gt;classical_q -->
<g id="edge18" class="edge">
<title>green_q&#45;&gt;classical_q</title>
<path fill="none" stroke="#4a6572" stroke-width="1.6" d="M424.5,-474.48C424.5,-474.48 424.5,-368.67 424.5,-368.67"/>
<polygon fill="#4a6572" stroke="#4a6572" stroke-width="1.6" points="427.3,-368.67 424.5,-360.67 421.7,-368.67 427.3,-368.67"/>
<text text-anchor="middle" x="455.5" y="-421.2" font-family="Helvetica,sans-Serif" font-size="11.00">Yes</text>
</g>
<!-- yellow_direct&#45;&gt;combine -->
<g id="edge24" class="edge">
<title>yellow_direct&#45;&gt;combine</title>
<path fill="none" stroke="#4a6572" stroke-width="1.6" d="M303.75,-241.79C303.75,-241.79 303.75,-137.2 303.75,-137.2"/>
<polygon fill="#4a6572" stroke="#4a6572" stroke-width="1.6" points="306.55,-137.2 303.75,-129.2 300.95,-137.2 306.55,-137.2"/>
</g>
<!-- green -->
<g id="node19" class="node">
<title>green</title>
<path fill="#ddf2d9" stroke="#4e9a51" d="M436,-216C436,-216 360,-216 360,-216 354,-216 348,-210 348,-204 348,-204 348,-192 348,-192 348,-186 354,-180 360,-180 360,-180 436,-180 436,-180 442,-180 448,-186 448,-192 448,-192 448,-204 448,-204 448,-210 442,-216 436,-216"/>
<text text-anchor="middle" x="398" y="-194.9" font-family="Helvetica,sans-Serif" font-size="12.00">Label: Green</text>
</g>
<!-- classical_q&#45;&gt;green -->
<g id="edge19" class="edge">
<title>classical_q&#45;&gt;green</title>
<path fill="none" stroke="#4a6572" stroke-width="1.6" d="M405.5,-328.97C405.5,-328.97 405.5,-224.24 405.5,-224.24"/>
<polygon fill="#4a6572" stroke="#4a6572" stroke-width="1.6" points="408.3,-224.24 405.5,-216.24 402.7,-224.24 408.3,-224.24"/>
<text text-anchor="middle" x="456.5" y="-257.2" font-family="Helvetica,sans-Serif" font-size="11.00">Yes</text>
</g>
<!-- yellow_override -->
<g id="node20" class="node">
<title>yellow_override</title>
<path fill="#fff2b9" stroke="#c7a522" d="M631.5,-218C631.5,-218 492.5,-218 492.5,-218 486.5,-218 480.5,-212 480.5,-206 480.5,-206 480.5,-190 480.5,-190 480.5,-184 486.5,-178 492.5,-178 492.5,-178 631.5,-178 631.5,-178 637.5,-178 643.5,-184 643.5,-190 643.5,-190 643.5,-206 643.5,-206 643.5,-212 637.5,-218 631.5,-218"/>
<text text-anchor="middle" x="562" y="-201.4" font-family="Helvetica,sans-Serif" font-size="12.00">Label: Yellow</text>
<text text-anchor="middle" x="562" y="-188.4" font-family="Helvetica,sans-Serif" font-size="12.00">(classical rule override)</text>
</g>
<!-- classical_q&#45;&gt;yellow_override -->
<g id="edge20" class="edge">
<title>classical_q&#45;&gt;yellow_override</title>
<path fill="none" stroke="#4a6572" stroke-width="1.6" d="M554.75,-319.5C554.75,-319.5 554.75,-226.02 554.75,-226.02"/>
<polygon fill="#4a6572" stroke="#4a6572" stroke-width="1.6" points="557.55,-226.02 554.75,-218.02 551.95,-226.02 557.55,-226.02"/>
<text text-anchor="middle" x="565" y="-257.2" font-family="Helvetica,sans-Serif" font-size="11.00">No</text>
</g>
<!-- green&#45;&gt;combine -->
<g id="edge26" class="edge">
<title>green&#45;&gt;combine</title>
<path fill="none" stroke="#4a6572" stroke-width="1.6" d="M365.75,-179.99C365.75,-179.99 365.75,-137.16 365.75,-137.16"/>
<polygon fill="#4a6572" stroke="#4a6572" stroke-width="1.6" points="368.55,-137.16 365.75,-129.16 362.95,-137.16 368.55,-137.16"/>
</g>
<!-- yellow_override&#45;&gt;combine -->
<g id="edge25" class="edge">
<title>yellow_override&#45;&gt;combine</title>
<path fill="none" stroke="#4a6572" stroke-width="1.6" d="M535,-177.91C535,-153.34 535,-115 535,-115 535,-115 391.53,-115 391.53,-115"/>
<polygon fill="#4a6572" stroke="#4a6572" stroke-width="1.6" points="391.53,-112.2 383.53,-115 391.53,-117.8 391.53,-112.2"/>
</g>
<!-- combine&#45;&gt;final_output -->
<g id="edge27" class="edge">
<title>combine&#45;&gt;final_output</title>
<path fill="none" stroke="#4a6572" stroke-width="1.6" d="M383.56,-102C406.56,-102 425.25,-102 425.25,-102 425.25,-102 425.25,-48.27 425.25,-48.27"/>
<polygon fill="#4a6572" stroke="#4a6572" stroke-width="1.6" points="428.05,-48.27 425.25,-40.27 422.45,-48.27 428.05,-48.27"/>
</g>
</g>
</svg>
